<svg xmlns="http://www.w3.org/2000/svg" width="39.729" height="26.486" viewBox="0 0 39.729 26.486">
  <g id="_1-record" data-name="1-record" transform="translate(-1 -6)">
    <path id="Path_1448" data-name="Path 1448" d="M40.04,7.486a1.323,1.323,0,0,0-1.351.048l-8.554,5.5V9.973A3.977,3.977,0,0,0,26.162,6H4.973A3.977,3.977,0,0,0,1,9.973v18.54a3.977,3.977,0,0,0,3.973,3.973H26.162a3.977,3.977,0,0,0,3.973-3.973V25.452l8.555,5.5a1.324,1.324,0,0,0,2.039-1.114V8.649a1.324,1.324,0,0,0-.69-1.163ZM27.486,28.513a1.326,1.326,0,0,1-1.324,1.324H4.973a1.326,1.326,0,0,1-1.324-1.324V9.973A1.326,1.326,0,0,1,4.973,8.649H26.162a1.326,1.326,0,0,1,1.324,1.324Zm10.595-1.1L30.135,22.3V16.183l7.946-5.109Z" transform="translate(0 0)"/>
  </g>
</svg>
