<svg xmlns="http://www.w3.org/2000/svg" width="26.396" height="26.396" viewBox="0 0 26.396 26.396">
  <g id="Grupo_110" data-name="Grupo 110" transform="translate(-838 -663.574)">
    <g id="Grupo_107" data-name="Grupo 107" transform="translate(838 663.574)">
      <path id="Trazado_1461" data-name="Trazado 1461"
        d="M16.788,22.949H9.608a2.063,2.063,0,0,1-1.5-.651l-2.362-2.52a.411.411,0,0,0-.3-.129H.825a.825.825,0,1,1,0-1.65H5.446a2.063,2.063,0,0,1,1.5.651l2.362,2.52a.411.411,0,0,0,.3.129h7.18a.411.411,0,0,0,.3-.13l2.362-2.519a2.066,2.066,0,0,1,1.5-.651h4.622a.825.825,0,1,1,0,1.65H20.949a.411.411,0,0,0-.3.13L18.29,22.3A2.066,2.066,0,0,1,16.788,22.949Z"
        transform="translate(0 -3.152)" fill="#fec72e" />
      <path id="Trazado_1462" data-name="Trazado 1462"
        d="M23.922,27.8H2.474A2.477,2.477,0,0,1,0,25.323V17.073a.821.821,0,0,1,.037-.245l2.3-7.382A1.865,1.865,0,0,1,4.148,8H5.774a.825.825,0,1,1,0,1.65H4.148a.211.211,0,0,0-.206.169.787.787,0,0,1-.021.084L1.65,17.2v8.124a.825.825,0,0,0,.824.824H23.922a.825.825,0,0,0,.824-.824V17.2L22.475,9.9a.709.709,0,0,1-.021-.082.212.212,0,0,0-.206-.17H20.622a.825.825,0,0,1,0-1.65h1.627a1.866,1.866,0,0,1,1.813,1.447l2.3,7.382a.848.848,0,0,1,.037.245v8.249A2.477,2.477,0,0,1,23.922,27.8Z"
        transform="translate(0 -1.401)" fill="#fec72e" />
      <path id="Trazado_1463" data-name="Trazado 1463"
        d="M19.073,5.774a.823.823,0,0,1-.583-.242L14.949,1.991,11.408,5.532a.825.825,0,0,1-1.166-1.166L14.366.242a.824.824,0,0,1,1.166,0l4.124,4.124a.825.825,0,0,1-.583,1.408Z"
        transform="translate(-1.751 0)" fill="#fec72e" />
      <path id="Trazado_1464" data-name="Trazado 1464"
        d="M15.825,14.847A.825.825,0,0,1,15,14.023V.825a.825.825,0,1,1,1.65,0v13.2A.825.825,0,0,1,15.825,14.847Z"
        transform="translate(-2.627 0)" fill="#fec72e" />
    </g>
  </g>
</svg>