<svg xmlns="http://www.w3.org/2000/svg" width="31.294" height="27.408" viewBox="0 0 31.294 27.408">
  <g id="Group_104" data-name="Group 104" transform="translate(14.563 -15.706) rotate(45)">
    <g id="Group_102" data-name="Group 102" transform="translate(22.947 0) rotate(45)">
      <path id="Path_1457" data-name="Path 1457" d="M13.067.005a.741.741,0,0,0-.545.442L.061,29.2a.779.779,0,0,0,.156.844.72.72,0,0,0,.818.161l12.15-5.9,12.15,5.9a.72.72,0,0,0,.818-.161.779.779,0,0,0,.156-.844L13.846.448A.773.773,0,0,0,13.067.005Zm.117,2.6L24.178,27.965,13.5,22.778a.725.725,0,0,0-.623,0L2.189,27.965Z" transform="translate(0 0)" stroke="#000" stroke-width="1"/>
    </g>
  </g>
</svg>
